<svg width="21" height="23" viewBox="0 0 21 23" fill="none" xmlns="http://www.w3.org/2000/svg">
    <path d="M1.28354 5.12521H3.28354H19.2835" stroke="#B06DF3" stroke-width="2" stroke-linecap="round" stroke-linejoin="round"/>
    <path d="M6.28354 5.12521V3.12521C6.28354 2.59478 6.49425 2.08607 6.86933 1.711C7.2444 1.33593 7.75311 1.12521 8.28354 1.12521H12.2835C12.814 1.12521 13.3227 1.33593 13.6978 1.711C14.0728 2.08607 14.2835 2.59478 14.2835 3.12521V5.12521M17.2835 5.12521V19.1252C17.2835 19.6556 17.0728 20.1644 16.6978 20.5394C16.3227 20.9145 15.814 21.1252 15.2835 21.1252H5.28354C4.75311 21.1252 4.2444 20.9145 3.86933 20.5394C3.49425 20.1644 3.28354 19.6556 3.28354 19.1252V5.12521H17.2835Z" stroke="#B06DF3" stroke-width="2" stroke-linecap="round" stroke-linejoin="round"/>
    <path d="M8.28354 10.1252V16.1252" stroke="#B06DF3" stroke-width="2" stroke-linecap="round" stroke-linejoin="round"/>
    <path d="M12.2835 10.1252V16.1252" stroke="#B06DF3" stroke-width="2" stroke-linecap="round" stroke-linejoin="round"/>
</svg>